<svg xmlns="http://www.w3.org/2000/svg" xmlns:xlink="http://www.w3.org/1999/xlink"><symbol id="search"><g fill="none"><path d="m24.695 23.222-7.11-7.11a9.848 9.848 0 0 0 2.206-6.216C19.791 4.44 15.351 0 9.896 0 4.44 0 0 4.44 0 9.896s4.44 9.896 9.896 9.896c2.354 0 4.515-.83 6.216-2.207l7.11 7.11a1.04 1.04 0 0 0 1.473 0 1.04 1.04 0 0 0 0-1.473Zm-14.8-5.514c-4.308 0-7.812-3.504-7.812-7.812s3.504-7.813 7.813-7.813c4.308 0 7.812 3.505 7.812 7.813s-3.504 7.812-7.812 7.812Z" fill="#292B2A"/></g></symbol><symbol id="shopping-cart"><g fill="none"><path d="M27.755 6.365a1.094 1.094 0 0 0-.849-.404H7.095l-.081-.746-.003-.024A5.984 5.984 0 0 0 1.094 0a1.094 1.094 0 1 0 0 2.188A3.79 3.79 0 0 1 4.84 5.465l1.3 11.944a3.286 3.286 0 0 0-1.93 3.044 3.285 3.285 0 0 0 3.282 3.281h.445A3.23 3.23 0 0 0 10.992 28a3.23 3.23 0 0 0 3.055-4.266h4.718A3.23 3.23 0 0 0 21.82 28a3.23 3.23 0 0 0 3.227-3.227 3.23 3.23 0 0 0-3.227-3.226H7.492a1.095 1.095 0 0 1-1.094-1.149c0-.603.491-1.093 1.094-1.093h13.964c1.941 0 3.723-1.202 4.539-3.06a1.094 1.094 0 0 0-2.003-.88c-.46 1.048-1.48 1.752-2.536 1.752H8.309l-.976-8.969h18.228l-.535 2.566a1.094 1.094 0 1 0 2.141.447l.81-3.883a1.094 1.094 0 0 0-.222-.913Zm-5.935 17.37a1.04 1.04 0 0 1 0 2.078 1.04 1.04 0 0 1 0-2.079Zm-10.828 0a1.04 1.04 0 0 1 0 2.078 1.04 1.04 0 0 1 0-2.079Z" fill="#292B2A"/></g></symbol></svg>
