<svg width="13" height="11" viewBox="0 0 13 11" fill="none" xmlns="http://www.w3.org/2000/svg">
<path d="M12.7344 5.4599L8.40077 1.12618C8.27707 1.00247 8.11219 0.93457 7.93639 0.93457C7.76039 0.93457 7.59561 1.00257 7.4719 1.12618L7.07844 1.51974C6.95483 1.64325 6.88674 1.80822 6.88674 1.98412C6.88674 2.15993 6.95483 2.33046 7.07844 2.45397L9.60661 4.98771H1.5745C1.21235 4.98771 0.926208 5.27122 0.926208 5.63346V6.18984C0.926208 6.55208 1.21235 6.86418 1.5745 6.86418H9.6353L7.07854 9.41206C6.95493 9.53577 6.88684 9.69625 6.88684 9.87216C6.88684 10.0479 6.95493 10.2107 7.07854 10.3343L7.472 10.7266C7.59571 10.8503 7.76049 10.9177 7.93648 10.9177C8.11229 10.9177 8.27716 10.8494 8.40087 10.7257L12.7345 6.39209C12.8585 6.26799 12.9267 6.10233 12.9262 5.92624C12.9266 5.74956 12.8585 5.5838 12.7344 5.4599Z" fill="white"/>
</svg>
